P3
# Created by IrfanView
16 16
255
0 0 0 0 0 0 0 0 0 0 0 0 0 0 0 0 0 0 0 0 0 0 2 0 98 126 52 
26 47 14 0 0 0 0 0 0 0 0 0 0 0 0 0 0 0 0 0 0 0 0 0 0 0 0 0 0 0 0 0 0 0 0 0 226 255 121 0 0 0 70 96 37 255 255 181 
31 151 0 0 0 0 148 179 105 13 32 2 0 0 0 0 0 0 0 0 0 0 0 0 0 0 0 0 0 0 0 0 0 0 9 0 255 255 144 238 255 131 234 255 150 217 255 134 
218 255 153 210 253 150 232 255 96 50 169 4 0 0 0 0 0 0 0 0 0 0 0 0 0 0 0 85 111 43 102 135 52 219 255 114 254 255 148 229 252 155 214 245 116 217 244 141 
223 247 158 169 224 64 160 221 60 24 168 0 0 0 0 0 0 0 0 0 0 0 0 0 0 0 0 122 155 60 238 255 122 238 255 145 225 249 156 165 221 73 153 213 68 216 247 156 
187 236 82 186 230 76 165 225 67 106 198 33 114 167 37 0 6 0 0 0 0 0 0 0 0 0 0 105 156 49 238 255 145 213 243 149 134 205 38 145 223 39 131 223 34 84 173 18 
201 255 88 183 229 78 161 221 62 195 240 71 171 246 58 30 108 2 0 0 0 10 19 5 174 226 83 220 255 133 232 255 169 146 210 55 173 241 55 115 171 39 0 0 0 0 0 0 
191 255 82 178 225 73 160 220 59 79 173 29 0 139 0 111 226 29 0 1 0 16 26 8 171 225 101 227 255 173 203 243 111 119 195 27 166 241 55 0 0 0 0 0 0 0 0 0 
204 255 86 170 223 66 157 218 54 45 167 7 20 112 0 13 25 3 0 0 0 0 0 0 51 75 47 220 255 150 180 232 70 111 192 29 96 170 27 0 0 0 0 0 0 103 152 41 
182 246 71 161 217 58 141 208 44 129 207 36 26 63 3 0 0 0 0 0 0 18 27 16 220 244 190 164 231 54 165 225 59 170 224 87 120 200 56 0 5 0 114 169 43 182 253 68 
166 224 59 142 210 45 146 211 41 160 220 36 101 213 5 0 10 0 0 0 0 60 79 52 178 255 143 152 234 37 177 230 70 186 229 119 228 255 192 172 238 57 166 234 58 160 218 55 
144 207 44 122 200 33 32 153 2 18 156 3 63 212 12 20 110 3 0 0 0 0 0 0 0 0 0 58 119 4 150 217 74 196 231 147 212 236 173 137 204 22 148 206 46 120 198 32 
131 197 29 26 157 6 68 170 13 0 0 0 2 0 1 1 0 0 0 0 0 0 0 0 0 0 0 129 190 56 179 230 121 181 223 160 177 220 134 112 192 6 117 202 24 83 181 12 
139 200 14 75 182 2 39 115 8 0 0 0 0 0 0 0 0 0 0 0 0 0 0 0 0 0 0 115 195 66 33 191 1 73 189 0 164 218 92 107 188 7 2 141 0 52 137 16 
75 151 0 48 196 0 73 221 14 0 0 0 0 0 0 0 0 0 0 0 0 0 0 0 0 0 0 0 0 0 0 0 0 0 0 0 123 192 54 54 194 0 65 205 14 42 61 16 
0 0 0 0 20 0 6 24 0 0 0 0 0 0 0 0 0 0 0 0 0 0 0 0 0 0 0 0 0 0 0 0 0 0 0 0 0 7 0 1 24 0 9 40 2 3 9 1 
0 0 0 0 0 0 0 0 0 0 0 0 0 0 0 0 0 0 0 0 0 